<?xml version="1.0" encoding="UTF-8"?>
<svg xmlns="http://www.w3.org/2000/svg" viewBox="0 0 405 320" width="405" height="320">
  <title>Northforge NG Mark — white</title>
  <path d="M370.00,295.18C362.57,291.50 345.48,283.12 332.00,276.56C318.52,270.00 288.03,255.07 264.24,243.39L220.98,222.14L221.24,159.32L221.50,96.50L303.27,96.24L385.04,95.99L384.77,115.24L384.50,134.50L323.75,134.76L263.00,135.02L263.00,166.49L263.00,197.97L302.54,217.78C324.28,228.68 342.17,237.50 342.29,237.38C342.40,237.26 342.37,226.60 342.22,213.69L341.93,190.21L334.48,184.05C330.38,180.66 326.46,177.33 325.76,176.66C325.07,175.99 318.99,170.79 312.26,165.10C305.53,159.42 300.27,154.36 300.58,153.87C300.89,153.37 319.11,153.09 342.82,153.24L384.50,153.50L384.76,227.75C384.90,268.59 384.67,301.97 384.26,301.93C383.84,301.90 377.43,298.86 370.00,295.18Z M145.00,258.00C145.00,238.20 145.34,222.01 145.75,222.03C147.16,222.08 190.50,261.80 190.50,263.04C190.50,263.49 185.55,267.24 179.50,271.38C159.22,285.25 146.08,294.00 145.54,294.00C145.24,294.00 145.00,277.80 145.00,258.00Z M20.00,155.50C20.00,80.97 20.27,20.00 20.61,20.00C20.94,20.00 25.58,24.16 30.92,29.25C55.90,53.04 122.61,116.48 132.00,125.37L142.50,135.32L143.00,77.41L143.50,19.50L248.99,19.50C307.01,19.50 361.68,19.73 370.49,20.00L386.50,20.50L376.50,27.43C371.00,31.24 358.32,39.90 348.33,46.68L330.16,59.00L258.59,59.00L187.01,59.00L186.76,149.37L186.50,239.74L162.50,217.19C149.30,204.78 121.62,178.67 101.00,159.17L63.50,123.72L63.00,189.27C62.73,225.33 62.27,255.00 62.00,255.21C60.58,256.27 37.35,276.62 36.50,277.55C34.33,279.93 21.29,291.00 20.66,291.00C20.30,291.00 20.00,230.03 20.00,155.50Z" fill="#F5F2ED" fill-rule="evenodd"/>
</svg>